<svg width="2048" height="472" viewBox="0 0 2048 472" fill="none" xmlns="http://www.w3.org/2000/svg">
<g clip-path="url(#clip0_2240_142)">
<rect y="-20" width="2048" height="512" fill="#FAE150"/>
<path d="M1059.84 215.191L1075.74 246.35V387.384L1054.99 404.522L968.442 374.722V282.256L989.195 289.402L993.169 346.81C993.169 348.678 995.524 350.423 1000.23 352.045L1028.12 364.346C1028.42 364.759 1029.15 365.168 1030.33 365.574C1033.27 366.587 1034.75 365.537 1034.75 362.424V225.924L990.961 208.752V183.067L1034.75 195.424L1038.21 97.9241L968 74.756V56.543L988.312 49.9939L1077.06 80.554V193.101L1074.42 203.397L1059.84 215.191Z" fill="black"/>
<path d="M1052.4 108.639L1054.8 105.739L1058 117.863L1057.2 130.379L1054.8 133.279L1050 123.977L1052.4 108.639Z" fill="#FAE150"/>
<path d="M1063.45 99.95L1066.26 97.5606L1070 106.65L1068.13 120.318L1065.32 124.384L1062.52 115.124L1063.45 99.95Z" fill="#FAE150"/>
<line y1="-2" x2="6.62459" y2="-2" transform="matrix(0.75471 -0.656059 0 1 1060 140.346)" stroke="#FAE150" stroke-width="4"/>
</g>
<defs>
<clipPath id="clip0_2240_142">
<rect width="2048" height="472" fill="white"/>
</clipPath>
</defs>
</svg>
