<svg width="2048" height="472" viewBox="0 0 2048 472" fill="none" xmlns="http://www.w3.org/2000/svg">
<g clip-path="url(#clip0_2241_156)">
<rect y="-20" width="2048" height="512" fill="#FAE150"/>
<path d="M1059.84 215.191L1075.74 246.35V387.384L1054.99 404.522L968.442 374.722V282.256L989.195 289.402L993.169 346.81C993.169 348.678 995.524 350.423 1000.23 352.045L1028.12 364.346C1028.42 364.759 1029.15 365.168 1030.33 365.574C1033.27 366.587 1034.75 365.537 1034.75 362.424V225.924L990.961 208.752V183.067L1034.75 186L1038.21 97.9241L968 74.756V56.543L988.312 49.9939L1077.06 80.554V193.101L1074.42 203.397L1059.84 215.191Z" fill="black"/>
<path d="M1048.53 113.414L1052.07 110.374L1056.78 120.883L1055.6 132.414L1052.07 135.455L1045 127.782L1048.53 113.414Z" fill="#FAE150"/>
<path d="M1063.36 104.623L1067.49 101.955L1073 110.237L1070.25 123.662L1066.12 127.948L1061.98 119.38L1063.36 104.623Z" fill="#FAE150"/>
<path d="M1054.5 147L1059.67 146.5L1068.5 140.5" stroke="#FAE150" stroke-width="6"/>
</g>
<defs>
<clipPath id="clip0_2241_156">
<rect width="2048" height="472" fill="white"/>
</clipPath>
</defs>
</svg>
